{"title":"Shameless.US.S06E03.The.F.Word.1080p.HDTV.x265-LGC.mkv","uid":13308691,"size":915009650,"categoryP":"video","categoryS":"hd___tv_shows","magnet":"?xt=urn:btih:f172ef53fac05524a68f0ec494ad3bb661d8271f&amp;dn=Shameless.US.S06E03.The.F.Word.1080p.HDTV.x265-LGC.mkv&amp;tr=udp%3A%2F%2Ftracker.leechers-paradise.org%3A6969&amp;tr=udp%3A%2F%2Fzer0day.ch%3A1337&amp;tr=udp%3A%2F%2Fopen.demonii.com%3A1337&amp;tr=udp%3A%2F%2Ftracker.coppersurfer.tk%3A6969&amp;tr=udp%3A%2F%2Fexodus.desync.com%3A6969","seeders":0,"leechers":0,"uploader":"pBtu6RHs","files":1,"time":1453758162,"description":"Shameless.US.S06E03.The.F.Word.1080p.HDTV.x265-LGC.mkv\r\nFormat : Matroska\r\nFormat version : Version 2\r\nFile size : 873 MiB\r\nDuration : 53mn 13s\r\nOverall bit rate : 2 292 Kbps\r\nEncoded date : UTC \r\nWriting application : HandBrake 0.10.2 2015060900\r\nWriting library : Lavf55.12.0\r\n\r\nVideo\r\nID : 1\r\nFormat : HEVC\r\nFormat/Info : High Efficiency Video Coding\r\nFormat profile :   @Main\r\nCodec ID : V_MPEGH/ISO/HEVC\r\nDuration : 53mn 13s\r\nBit rate : 1 607 Kbps\r\nWidth : 1 920 pixels\r\nHeight : 1 080 pixels\r\nDisplay aspect ratio : 16:9\r\nFrame rate mode : Constant\r\nFrame rate : 23.976 fps\r\nColor space : YUV\r\nChroma subsampling : 4:2:0\r\nBit depth : 8 bits\r\nBits/(Pixel*Frame) : 0.032\r\nStream size : 612 MiB (70%)\r\nWriting library : x265 1.5:[Windows][GCC 4.9.0][64 bit]\r\nEncoding settings : wpp / ctu=32 / tu-intra-depth=1 / tu-inter-depth=1 / me=0 / subme=0 / merange=25 / no-rect / no-amp / max-merge=2 / temporal-mvp / early-skip / no-fast-cbf / rdpenalty=0 / no-tskip / no-tskip-fast / strong-intra-smoothing / no-lossless / no-cu-lossless / no-constrained-intra / fast-intra / open-gop / interlace=0 / keyint=240 / min-keyint=24 / scenecut=0 / rc-lookahead=10 / bframes=4 / bframe-bias=0 / b-adapt=0 / ref=1 / no-weightp / no-weightb / aq-mode=0 / aq-strength=0.00 / cbqpoffs=0 / crqpoffs=0 / rd=2 / psy-rd=0.30 / psy-rdoq=0.00 / no-signhide / lft / no-sao / no-sao-non-deblock / b-pyramid / no-cutree / rc=2 / pass / bitrate=1650 / qcomp=0.60 / qpmin=0 / qpmax=51 / qpstep=4 / cplxblur=20.0 / qblur=0.5 / ipratio=1.40 / pbratio=1.30\r\nDefault : Yes\r\nForced : No\r\nColor range : Limited\r\nColor primaries : BT.709\r\nTransfer characteristics : BT.709\r\nMatrix coefficients : BT.709\r\n\r\nAudio\r\nID : 2\r\nFormat : AC-3\r\nFormat/Info : Audio Coding 3\r\nMode extension : CM (complete main)\r\nFormat settings, Endianness : Big\r\nCodec ID : A_AC3\r\nDuration : 53mn 13s\r\nBit rate mode : Constant\r\nBit rate : 640 Kbps\r\nChannel(s) : 6 channels\r\nChannel positions : Front: L C R, Side: L R, LFE\r\nSampling rate : 48.0 KHz\r\nCompression mode : Lossy\r\nStream size : 244 MiB (28%)\r\nTitle : Surround\r\nDefault : Yes\r\nForced : No\r\n\r\nText\r\nID : 3\r\nFormat : ASS\r\nCodec ID : S_TEXT/ASS\r\nCodec ID/Info : Advanced Sub Station Alpha\r\nCompression mode : Lossless\r\nLanguage : English\r\nDefault : No\r\nForced : No\r\n\r\nSOURCE: Shameless.US.S06E03.1080p.HDTV.X264-DIMENSION","torrent":{"xt":"urn:btih:f172ef53fac05524a68f0ec494ad3bb661d8271f","amp;dn":"Shameless.US.S06E03.The.F.Word.1080p.HDTV.x265-LGC.mkv","amp;tr":["udp%3A%2F%2Ftracker.leechers-paradise.org%3A6969","udp%3A%2F%2Fzer0day.ch%3A1337","udp%3A%2F%2Fopen.demonii.com%3A1337","udp%3A%2F%2Ftracker.coppersurfer.tk%3A6969","udp%3A%2F%2Fexodus.desync.com%3A6969"],"infoHash":"f172ef53fac05524a68f0ec494ad3bb661d8271f","infoHashBuffer":{"type":"Buffer","data":[241,114,239,83,250,192,85,36,166,143,14,196,148,173,59,182,97,216,39,31]},"announce":[],"urlList":[]}}